# Blender v2.77 (sub 0) OBJ File: ''
# www.blender.org
mtllib Barrel.mtl
o Mesh_0129.rip
v -0.274796 0.624795 -0.274796
v -0.232125 0.895924 -0.232125
v 0.000000 0.624795 -0.388620
v 0.000000 0.895924 -0.328275
v 0.274796 0.624795 -0.274796
v 0.232125 0.895924 -0.232125
v 0.388620 0.624795 0.000000
v 0.328275 0.895924 0.000000
v 0.274796 0.624794 0.274796
v 0.232125 0.895923 0.232125
v 0.000000 0.624794 0.388620
v 0.000000 0.895923 0.328275
v -0.274796 0.624794 0.274796
v -0.232125 0.895923 0.232125
v -0.388620 0.624795 0.000000
v -0.328275 0.895924 0.000000
v -0.274796 0.271339 -0.274796
v 0.000000 0.271339 -0.388620
v 0.274796 0.271339 -0.274796
v 0.388620 0.271339 -0.000000
v 0.274796 0.271339 0.274796
v 0.000000 0.271339 0.388620
v -0.274796 0.271339 0.274796
v -0.388620 0.271339 -0.000000
v -0.232125 0.000210 -0.232125
v 0.000000 0.000210 -0.328275
v 0.232125 0.000210 -0.232125
v 0.328275 0.000210 -0.000000
v 0.232125 0.000210 0.232125
v 0.000000 0.000210 0.328275
v -0.232125 0.000210 0.232125
v -0.328275 0.000210 -0.000000
v 0.000000 0.895924 0.000000
v 0.000000 0.000210 -0.000000
vt -0.0351 -1.0000
vt -0.0351 -0.6667
vt 0.1943 -1.0000
vt 0.1943 -0.6667
vt 0.4237 -1.0000
vt 0.4237 -0.6667
vt 0.6530 -1.0000
vt 0.6530 -0.6667
vt 0.8824 -1.0000
vt 0.8824 -0.6667
vt 0.5518 -0.5349
vt 0.9103 -0.4834
vt 0.7592 -0.6101
vt 1.0552 -0.6110
vt 0.5544 -0.4296
vt 0.7655 -0.3558
vt 1.0614 -0.3567
vt 0.6146 -0.5345
vt 0.9066 -0.4815
vt 0.7881 -0.6069
vt 1.0310 -0.6059
vt -0.0351 -0.3333
vt 0.1943 -0.3333
vt 0.4237 -0.3333
vt 0.6530 -0.3333
vt 0.8824 -0.3333
vt -0.0351 -0.0000
vt 0.1943 -0.0000
vt 0.4237 -0.0000
vt 0.6530 -0.0000
vt 0.8824 -0.0000
vt 0.6122 -0.4311
vt 0.7823 -0.3572
vt 1.0252 -0.3562
vt 0.0475 -0.3333
vt 0.0475 -0.0000
vt 0.2768 -0.3333
vt 0.2768 -0.0000
vt 0.5062 -0.3333
vt 0.5062 -0.0000
vt 0.7356 -0.3333
vt 0.7356 -0.0000
vt 0.9649 -0.3333
vt 0.9649 -0.0000
vt 0.0475 -0.6667
vt 0.2768 -0.6667
vt 0.5062 -0.6667
vt 0.7356 -0.6667
vt 0.9649 -0.6667
vt 0.0475 -1.0000
vt 0.2768 -1.0000
vt 0.5062 -1.0000
vt 0.7356 -1.0000
vt 0.9649 -1.0000
vt 0.0252 -0.3562
vt 0.1987 -0.4286
vt -0.0934 -0.4815
vt 0.2010 -0.5320
vt 0.0310 -0.6059
vt 0.0552 -0.6110
vt -0.0897 -0.4834
vt 0.2663 -0.5372
vt 0.2689 -0.4318
vt 0.0614 -0.3567
vn 0.6224 -0.7377 0.2615
vn 0.9465 -0.1148 0.3017
vn 0.0893 -0.7193 0.6890
vn 0.1105 -0.1107 0.9877
vn -0.4240 -0.7193 0.5503
vn -0.6203 -0.1107 0.7765
vn -0.6890 -0.7193 0.0893
vn -0.9877 -0.1107 0.1105
vn -0.6971 -0.1677 -0.6971
vn -0.6600 0.3590 -0.6600
vn 0.4240 -0.7193 -0.5503
vn 0.0000 -1.0000 -0.0000
vn -0.0893 -0.7193 -0.6890
vn 0.6890 -0.7193 -0.0893
vn 0.5344 0.6440 -0.5475
vn 0.0000 1.0000 0.0000
vn 0.7650 0.6440 -0.0092
vn 0.6133 0.4977 0.6133
vn 0.9465 0.1148 0.3017
vn 0.1105 0.1107 0.9877
vn -0.6203 0.1107 0.7765
vn -0.9877 0.1107 0.1105
vn -0.5912 0.5485 -0.5912
vn 0.0092 0.6440 0.7650
vn -0.5344 0.6440 0.5475
vn -0.7650 0.6440 0.0092
vn -0.3802 0.5939 -0.7090
vn -0.0092 0.6440 -0.7650
vn -0.1105 0.1107 -0.9877
vn 0.6203 0.1107 -0.7765
vn 0.9877 0.1107 -0.1105
vn -0.1105 -0.1107 -0.9877
vn 0.6203 -0.1107 -0.7765
vn 0.9877 -0.1107 -0.1105
usemtl mat0.2414
s 1
f 29/1/1 21/2/2 30/3/3
f 21/2/2 22/4/4 30/3/3
f 30/3/3 22/4/4 31/5/5
f 22/4/4 23/6/6 31/5/5
f 31/5/5 23/6/6 32/7/7
f 23/6/6 24/8/8 32/7/7
f 32/7/7 24/8/8 25/9/9
f 24/8/8 17/10/10 25/9/9
usemtl mat0.2412
f 27/11/11 34/12/12 26/13/13
f 34/12/12 25/14/9 26/13/13
usemtl mat0.2409
f 27/11/11 28/15/14 34/12/12
f 28/15/14 29/16/1 34/12/12
f 34/12/12 29/16/1 30/17/3
usemtl mat0.2413
f 6/18/15 33/19/16 8/20/17
f 33/19/16 10/21/18 8/20/17
usemtl mat0.2416
f 21/2/2 9/22/19 22/4/4
f 9/22/19 11/23/20 22/4/4
f 22/4/4 11/23/20 23/6/6
f 11/23/20 13/24/21 23/6/6
f 23/6/6 13/24/21 24/8/8
f 13/24/21 15/25/22 24/8/8
f 24/8/8 15/25/22 17/10/10
f 15/25/22 1/26/23 17/10/10
usemtl mat0.2418
f 9/22/19 10/27/18 11/23/20
f 10/27/18 12/28/24 11/23/20
f 11/23/20 12/28/24 13/24/21
f 12/28/24 14/29/25 13/24/21
f 13/24/21 14/29/25 15/25/22
f 14/29/25 16/30/26 15/25/22
f 15/25/22 16/30/26 1/26/23
f 16/30/26 2/31/27 1/26/23
usemtl mat0.2410
f 6/18/15 4/32/28 33/19/16
f 4/32/28 2/33/27 33/19/16
f 33/19/16 2/33/27 16/34/26
usemtl mat0.2419
f 1/35/23 2/36/27 3/37/29
f 2/36/27 4/38/28 3/37/29
f 3/37/29 4/38/28 5/39/30
f 4/38/28 6/40/15 5/39/30
f 5/39/30 6/40/15 7/41/31
f 6/40/15 8/42/17 7/41/31
f 7/41/31 8/42/17 9/43/19
f 8/42/17 10/44/18 9/43/19
usemtl mat0.2417
f 17/45/10 1/35/23 18/46/32
f 1/35/23 3/37/29 18/46/32
f 18/46/32 3/37/29 19/47/33
f 3/37/29 5/39/30 19/47/33
f 19/47/33 5/39/30 20/48/34
f 5/39/30 7/41/31 20/48/34
f 20/48/34 7/41/31 21/49/2
f 7/41/31 9/43/19 21/49/2
usemtl mat0.2415
f 25/50/9 17/45/10 26/51/13
f 17/45/10 18/46/32 26/51/13
f 26/51/13 18/46/32 27/52/11
f 18/46/32 19/47/33 27/52/11
f 27/52/11 19/47/33 28/53/14
f 19/47/33 20/48/34 28/53/14
f 28/53/14 20/48/34 29/54/1
f 20/48/34 21/49/2 29/54/1
usemtl mat0.2411
f 16/55/26 14/56/25 33/57/16
f 14/56/25 12/58/24 33/57/16
f 33/57/16 12/58/24 10/59/18
usemtl mat0.2408
f 25/60/9 34/61/12 32/62/7
f 32/62/7 34/61/12 31/63/5
f 34/61/12 30/64/3 31/63/5
